<?xml version="1.0" encoding="UTF-8"?>
<svg id="Camada_1" data-name="Camada 1" xmlns="http://www.w3.org/2000/svg" viewBox="0 0 47.77 38.76">
  <path d="M43.69,5.33l-.39-.99-4.47-1.65v-.86c0-.99-.72-1.84-1.65-1.84-.66,0-1.18,.39-1.45,.92-.33-.53-.86-.92-1.45-.92-.92,0-1.64,.86-1.64,1.84v.86l-4.47,2.24h-8.49c-6.51,.07-10.66,3.49-10.53,9.15v11.38s-2.11,0-2.11,0c-3.75,0-7.04,2.83-7.04,6.58,0,3.75,3.22,6.65,7.04,6.71h9.21c.72,0,1.32-.59,1.32-1.32s-.59-1.32-1.32-1.32H7.04c-2.57,0-4.47-1.91-4.47-4.01,0-1.96,1.66-3.75,3.97-3.99,.17-.02,.34-.03,.51-.03h26.78s-1.97-2.11-1.97-2.11h-5.13c1.97-.46,3.49-2.11,3.49-4.08,0-.99-.39-1.91-1.05-2.63,0-.07-.07-.07-.07-.13h6.71l-.99,1.18h2.63l-.07-4.08h-3.75c1.64-3.21,4.61-4.64,8.67-4.64,.35,0,.71,.01,1.07,.03l4.41-3.42v-.39l-4.08-2.5Z"/>
</svg>